<svg viewBox="0 0 24 24" xmlns="http://www.w3.org/2000/svg">
  <path fill="#FF9900" d="M10.278 8.5L2.5 9.515v2.407c0 .515-.032.978-.135 1.412l-.06.281c-.068.304-.159.59-.27.861l-.03.09a3.68 3.68 0 0 1-.365.655l-.184.25c-.24.301-.488.539-.727.771l-.06.06c-.09.09-.196.182-.29.261l-.06.06c-.18.15-.362.297-.507.438l-.03.03c-.75.66-1.358 1.238-1.358 2.92 0 .87.135 1.498.398 2.2l.06.136c.12.27.254.517.392.75l.075.12c.12.195.254.39.398.57l.09.121c.538.75 1.149 1.376 2.216 1.988l.195.105c.72.405 1.655.75 2.595.976l.15.03c.135.03.27.03.42.06h.12c.382 0 .75-.03 1.132-.06l.18-.03c.66-.06 1.318-.21 1.937-.45l.18-.06c.6-.24 1.229-.521 1.688-.87.68-.495 1.213-1.021 1.579-1.713.195-.375.345-.75.45-1.14l.06-.18c.12-.4.18-.804.21-1.233l.015-.24c0-.27-.03-.555-.06-.806l-.03-.15c0-.105-.03-.211-.06-.316l-.06-.18c-.15-.6-.398-1.133-.75-1.605a5.64 5.64 0 0 0-.9-1.034l-.06-.06c-.03-.03-.09-.03-.12-.06l-.211-.269a4.51 4.51 0 0 0-.51-.54c-.06-.03-.09-.09-.15-.121L8.754 11.81 5.3 9.338c.518-.256 1.039-.448 1.5-.448z"/>
  <path fill="#232F3E" d="M13.272 9.543c-.59.15-1.051.404-1.398.75l-.06.09c-.21.24-.362.51-.487.81l-.045.15c-.09.3-.12.598-.135.917l-.015.3c0 .33.03.66.12.975l.06.18c.09.3.24.6.39.86l.075.12c.287.435.66.825 1.124 1.125.51.3 1.05.525 1.595.66l.165.03c.285.044.577.044.862 0l.195-.03c.347-.06.695-.135 1.028-.256l.18-.06c.21-.074.417-.165.615-.27l.18-.09c.045-.03.06-.03.09-.03.12-.06.225-.15.34-.225l.121-.09c.045-.03.09-.06.135-.09l.12-.06c.44-.27.825-.598 1.165-.96l.06-.06a6.75 6.75 0 0 0 1.172-1.59l.03-.06c.12-.21.21-.45.285-.69l.045-.18c.12-.405.18-.84.195-1.274v-.06a5.85 5.85 0 0 0-.135-1.448l-.06-.18a3.09 3.09 0 0 0-.285-.93l-.06-.18c-.14-.45-.357-.86-.6-1.233l-.075-.12c-.21-.3-.467-.585-.75-.84l-.105-.1c-.24-.225-.508-.42-.786-.598l-.12-.07c-.547-.36-1.128-.66-1.74-.89l-.176-.062c-.306-.107-.621-.186-.94-.238l-.21-.03c-.333-.054-.675-.079-1.014-.075l-.075 0c-1.363 0-2.595.75-3.227 1.964l-.06.12c-.18.36-.27.75-.3 1.155l-.015.27c0 .18.03.36.06.54l.03.135c.06.36.15.66.27.917l.06.15c.21.495.54.96.93 1.362v-.015z"/>
  <path fill="#232F3E" d="M18.182 18.945c-1.665-.404-2.77-1.481-3.172-2.946l-.024-.074a3.5 3.5 0 0 1-.122-1.103l.015-.06c0-.18.03-.36.074-.535l.041-.15c.112-.383.273-.75.479-1.095l.06-.09c.409-.648 1.04-1.153 1.73-1.449.458-.197.947-.328 1.447-.39l.258-.022c.345-.024.693 0 1.033.072l.182.041c.842.211 1.56.733 2.018 1.448l.046.075c.104.182.2.373.285.57l.045.12c.1.24.194.49.274.75l.03.09c.01.03.015.06.02.09l.075.345c.04.24.068.482.082.725v.09a2.06 2.06 0 0 1-.035.435l-.045.18c-.06.24-.135.468-.225.694l-.06.135c-.174.422-.411.82-.706 1.182l-.09.12c-.577.694-1.398 1.204-2.3 1.47l-.212.062c-.387.105-.788.172-1.192.2l-.105.005c-.4.02-.8 0-1.198-.057l-.15-.019c-.125-.016-.25-.04-.373-.072l-.21-.045c-.114-.023-.225-.053-.336-.087l-.145-.043c-.308-.089-.604-.2-.881-.332l-.135-.063a3.68 3.68 0 0 1-.255-.135l-.015-.011c-.208-.109-.407-.228-.597-.357l-.045-.03c-.135-.09-.27-.18-.405-.27l-.06-.03c-.157-.098-.307-.204-.45-.316l-.09-.06h-.03c-.245-.21-.478-.43-.7-.66l-.03-.04c-.15-.15-.315-.308-.48-.451l-.03-.03c-.24-.21-.48-.42-.72-.63l-.06-.03c-.195-.195-.405-.39-.615-.585l-.06-.03c-.24-.24-.508-.45-.786-.656l-.06-.045c-.45-.36-.93-.735-1.377-1.125l-.06-.045c-.225-.195-.45-.39-.675-.585l-.045-.045c-.45-.36-.915-.735-1.35-1.125l-.06-.03c-.278-.27-.555-.539-.818-.834l-.03-.03c-.21-.24-.42-.48-.615-.73l-.03-.06c-.045-.06-.075-.12-.12-.18a1.595 1.595 0 0 1-.135-.21l-.015-.03c-.015-.03-.03-.03-.045-.06-.15-.27-.27-.54-.36-.82l-.03-.12c-.06-.195-.105-.39-.135-.585l-.015-.15v-.09c0-.06-.03-.09-.03-.15a4.387 4.387 0 0 1 0-.72l.03-.12c.06-.33.15-.66.27-.976l.045-.135c.18-.51.414-1.004.7-1.474l.06-.105c.397-.655.9-1.23 1.49-1.704l.12-.09c.265-.225.547-.42.844-.59l.135-.08c.834-.485 1.785-.796 2.77-.915l.27-.03c.442-.044.886-.044 1.328 0l.212.022c1.01.105 1.994.48 2.82 1.098l.165.12a7.258 7.258 0 0 1 1.62 1.62l.09.09c.21.211.408.433.6.67l.06.06c.029.036.059.072.088.108l.073.09c.045.06.09.09.135.15.24.3.45.615.6.975l.045.105c.044.114.097.225.158.333l.041.09c.074.147.154.29.24.43l.053.095c.002.004.006.009.009.013l.03.06.06.12.09.18.03.03c.05.09.09.21.135.33l.015.03c.018.06.036.12.05.18v.044c.015.06.03.12.045.195.03.15.045.3.06.45l.015.18v.105c0 .48-.06.96-.195 1.41l-.06.195c-.195.72-.532 1.38-.975 1.958l-.075.09c-.87 1.125-2.124 1.894-3.487 2.095l-.105.013c-.275.024-.554.024-.83 0l-.21-.013c-1.145-.105-2.224-.578-3.045-1.352l-.075-.09c-.285-.285-.533-.6-.741-.933l-.06-.09c-.075-.12-.135-.24-.2-.36l-.045-.09a6.344 6.344 0 0 1-.39-.974l-.03-.135c-.044-.3-.068-.603-.07-.907v-.135c0-.315.03-.63.09-.93l.03-.12c.068-.3.163-.595.284-.88l.06-.105c.075-.15.15-.315.24-.48l.06-.09c.09-.18.195-.36.3-.54l.06-.09c.03-.06.06-.09.09-.15.045-.06.074-.12.12-.18.06-.09.135-.18.195-.27l.105-.12c.09-.12.195-.21.3-.33l.09-.06c.09-.09.195-.18.3-.27l.06-.03c.36-.3.772-.54 1.215-.71l.127-.051c.392-.12.797-.188 1.206-.2l.12 0c.398 0 .796.045 1.188.135l.18.045c.27.06.54.12.81.21l.225.075c.3.12.585.27.86.45l.135.075c.135.09.27.18.405.27l.06.03c.36.24.72.48 1.05.774l.09.075c.09.09.18.18.27.27l.03.03c.18.18.36.36.525.57l.03.03c.135.15.27.3.405.45l.03.03c.21.24.42.48.6.75l.03.06c.09.12.18.27.27.42l.03.06c.03.06.06.09.09.15.06.135.12.27.165.405l.03.09c.03.09.06.18.09.27l.015.06c.015.06.03.12.045.195.03.15.045.3.045.45l.015.195v.135c0 .315-.03.63-.09.93l-.03.135c-.074.3-.163.595-.283.88l-.06.105c-.075.15-.15.315-.24.48l-.06.09c-.09.18-.195.36-.3.54l-.06.09c-.06.12-.12.24-.195.36l-.06.09c-.18.3-.39.585-.6.84l-.06.075c-.27.315-.57.6-.9.855l-.09.075c-.27.24-.555.45-.855.64l-.135.08c-.54.33-1.125.57-1.724.722l-.158.044c-.51.094-1.03.144-1.553.15l-.195 0c-.585 0-1.155-.09-1.695-.27l-.195-.06c-.57-.195-1.08-.496-1.53-.882l-.09-.075c-.47-.405-.89-.855-1.26-1.344l-.06-.09c-.16-.21-.3-.42-.42-.645l-.045-.09c-.11-.21-.19-.437-.24-.67l-.023-.123c-.044-.295-.056-.594-.036-.893l.015-.195v-.135c0-.09.03-.195.045-.285l.015-.06c.015-.06.03-.12.045-.195.03-.15.045-.3.045-.45l.015-.195c0-.09-.03-.195-.045-.285l-.015-.06c-.015-.06-.03-.12-.045-.195-.03-.15-.045-.3-.06-.45l-.015-.195v-.135c0-.315.03-.63.09-.93l.03-.12c.074-.3.163-.595.283-.88l.06-.105c.075-.15.15-.315.24-.48l.06-.09c.09-.18.195-.36.3-.54l.06-.09c.06-.12.12-.24.195-.36l.06-.09c.18-.3.39-.585.6-.84l.06-.075c.27-.315.57-.6.9-.855l.09-.075c.27-.24.555-.45.855-.64l.135-.08c.54-.33 1.125-.57 1.724-.722l.158-.044c.51-.094 1.03-.144 1.553-.15l.195 0c.585 0 1.155.09 1.695.27l.195.06c.57.195 1.08.496 1.53.882l.09.075c.47.405.89.855 1.26 1.344l.06.09c.16.21.3.42.42.645l.045.09c.11.21.19.437.24.67l.023.123c.044.295.056.594.036.893l-.015.195v.135c0 .09-.03.195-.045.285l-.015.06c-.015.06-.03.12-.045.195-.03.15-.045.3-.045.45l-.015.195c0 .09.03.195.045.285l.015.06c.015.06.03.12.045.195.03.15.045.3.06.45l.015.195v.135c0 .315-.03.63-.09.93l-.03.135c-.074.3-.163.595-.283.88l-.06.105c-.075.15-.15.315-.24.48l-.06.09c-.09.18-.195.36-.3.54l-.06.09c-.06.12-.12.24-.195.36l-.06.09c-.18.3-.39.585-.6.84l-.06.075c-.27.315-.57.6-.9.855l-.09.075c-.27.24-.555.45-.855.64l-.135.08c-.54.33-1.125.57-1.724.722l-.158.044c-.51.094-1.03.144-1.553.15l-.195 0c-.585 0-1.155-.09-1.695-.27l-.195-.06c-.57-.195-1.08-.496-1.53-.882l-.09-.075c-.47-.405-.89-.855-1.26-1.344l-.06-.09c-.16-.21-.3-.42-.42-.645l-.045-.09c-.11-.21-.19-.437-.24-.67l-.023-.123c-.044-.295-.056-.594-.036-.893l.015-.195c0-.09.03-.195.045-.285l.015-.06c.015-.06.03-.12.045-.195.03-.15.045-.3.045-.45l.015-.195v-.135l.03-.135c.074-.3.163-.595.283-.88l.06-.105c.075-.15.15-.315.24-.48l.06-.09c.09-.18.195-.36.3-.54l.06-.09c.06-.12.12-.24.195-.36l.06-.09c.18-.3.39-.585.6-.84l.06-.075c.27-.315.57-.6.9-.855l.09-.075c.27-.24.555-.45.855-.64l.135-.08c.54-.33 1.125-.57 1.724-.722l.158-.044c.51-.094 1.03-.144 1.553-.15l.195 0c.585 0 1.155.09 1.695.27l.195.06c.57.195 1.08.496 1.53.882l.09.075c.47.405.89.855 1.26 1.344l.06.09c.16.21.3.42.42.645l.045.09c.11.21.19.437.24.67l.023.123c.044.295.056.594.036.893l-.015.195v.135c0 .09-.03.195-.045.285l-.015.06c-.015.06-.03.12-.045.195-.03.15-.045.3-.06.45l-.015.195v.135c0 .315-.03.63-.09.93l-.03.135c-.074.3-.163.595-.283.88l-.06.105c-.075.15-.15.315-.24.48l-.06.09c-.09.18-.195.36-.3.54l-.06.09c-.06.12-.12.24-.195.36l-.06.09c-.18.3-.39.585-.6.84l-.06.075c-.27.315-.57.6-.9.855l-.09.075c-.27.24-.555.45-.855.64l-.135.08c-.54.33-1.125.57-1.724.722l-.158.044c-.51.094-1.03.144-1.553.15l-.195 0c-.585 0-1.155-.09-1.695-.27l-.195-.06c-.57-.195-1.08-.496-1.53-.882l-.09-.075c-.47-.405-.89-.855-1.26-1.344l-.06-.09c-.16-.21-.3-.42-.42-.645l-.045-.09c-.11-.21-.19-.437-.24-.67l-.023-.123c-.044-.295-.056-.594-.036-.893l.015-.195c0-.09.03-.195.045-.285l.015-.06c.015-.06.03-.12.045-.195.03-.15.045-.3.045-.45l.015-.195v-.135l.03-.135c.074-.3.163-.595.283-.88l.06-.105c.075-.15.15-.315.24-.48l.06-.09c.09-.18.195-.36.3-.54l.06-.09c.06-.12.12-.24.195-.36l.06-.09c.18-.3.39-.585.6-.84l.06-.075c.27-.315.57-.6.9-.855l.09-.075c.27-.24.555-.45.855-.64l.135-.08c.54-.33 1.125-.57 1.724-.722l.158-.044c.51-.094 1.03-.144 1.553-.15l.195 0c.585 0 1.155.09 1.695.27l.195.06c.57.195 1.08.496 1.53.882l.09.075c.47.405.89.855 1.26 1.344l.06.09c.16.21.3.42.42.645l.045.09c.11.21.19.437.24.67l.023.123c.044.295.056.594.036.893l-.015.195v.135c0 .09-.03.195-.045.285l-.015.06c-.015.06-.03.12-.045.195-.03.15-.045.3-.06.45l-.015.195v.135c0 .315-.03.63-.09.93l-.03.135c-.074.3-.163.595-.283.88l-.06.105c-.075.15-.15.315-.24.48l-.06.09c-.09.18-.195.36-.3.54l-.06.09c-.06.12-.12.24-.195.36l-.06.09c-.18.3-.39.585-.6.84l-.06.075c-.27.315-.57.6-.9.855l-.09.075c-.27.24-.555.45-.855.64l-.135.08c-.54.33-1.125.57-1.724.722l-.158.044c-.51.094-1.03.144-1.553.15l-.195 0c-.585 0-1.155-.09-1.695-.27l-.195-.06c-.57-.195-1.08-.496-1.53-.882l-.09-.075c-.47-.405-.89-.855-1.26-1.344l-.06-.09c-.16-.21-.3-.42-.42-.645l-.045-.09c-.11-.21-.19-.437-.24-.67l-.023-.123c-.044-.295-.056-.594-.036-.893l.015-.195c0-.09.03-.195.045-.285l.015-.06c.015-.06.03-.12.045-.195.03-.15.045-.3.045-.45l.015-.195v-.135z"/>
</svg>

