<svg viewBox="0 0 24 24" xmlns="http://www.w3.org/2000/svg">
  <path fill="#2496ED" d="M13.983 10.846H1.242a.41.41 0 0 0-.411.409v.73a.41.41 0 0 0 .41.409h12.743a.41.41 0 0 0 .41-.409v-.73a.41.41 0 0 0-.411-.409h-.001zm-4.944-9.277a1.53 1.53 0 0 0-1.086.45l-.589.59-.588-.59A1.53 1.53 0 0 0 6.173.85C5.532.85 5 .853 5 1.5s.532.65 1.173.65c.401 0 .748-.148 1.03-.434l.176-.177.177.176c.28.287.628.435 1.03.435.823 0 1.322-.55 1.322-1.35 0-.8-.5-1.75-1.678-1.75zm-2.01 2.806H.77a.41.41 0 0 0-.41.408v.73c0 .226.183.409.41.409h6.259a.41.41 0 0 0 .41-.409v-.73a.41.41 0 0 0-.41-.409zm8.91-3.725H3.51a.41.41 0 0 0-.41.408v.73a.41.41 0 0 0 .41.409h12.431a.41.41 0 0 0 .41-.409v-.73a.41.41 0 0 0-.41-.408zm-14.91 7.45H2.452a.41.41 0 0 0-.41.409v.73c0 .226.184.409.41.409h1.576a.41.41 0 0 0 .41-.409v-.73a.41.41 0 0 0-.41-.409zM20.77 2.376c-.64 0-1.084.15-1.438.293-.354.144-.628.293-1.059.293s-.706-.15-1.06-.293c-.354-.145-.798-.293-1.437-.293-.639 0-1.083.148-1.437.293C13.443 2.813 13.169 2.961 12.738 2.961s-.705-.148-1.06-.292c-.353-.145-.798-.293-1.437-.293-.7 0-1.173.048-1.592.236v5.606c.595.3 1.75.725 3.029.725h12.859c.411 0 .665-.055.849-.126.438-.173.549-.477.549-.705v-4.28c0-.648-.531-1.5-1.172-1.5zm-6.1 6.46a.12.12 0 0 1-.121.12h-.726a.12.12 0 0 1-.12-.12V8.79a.12.12 0 0 1 .12-.121h.727a.12.12 0 0 1 .12.121v.047h-.001zm3.404 0a.12.12 0 0 1-.12.12h-.727a.12.12 0 0 1-.121-.12V8.79a.12.12 0 0 1 .121-.121h.727a.12.12 0 0 1 .12.121v.047zm3.404 0a.12.12 0 0 1-.12.12H18.73a.12.12 0 0 1-.12-.12V8.79a.12.12 0 0 1 .12-.121h.728a.12.12 0 0 1 .12.121v.047zM18.73 7.445h-.728a.12.12 0 0 0-.12.121v.046a.12.12 0 0 0 .12.121h.728a.12.12 0 0 0 .12-.121v-.046a.12.12 0 0 0-.12-.121z"/>
  <path fill="#2496ED" d="M17.59 17.37c-1.477 0-2.591-1.119-2.591-2.59 0-1.442 1.114-2.59 2.591-2.59 1.448 0 2.59 1.148 2.59 2.59s-1.142 2.59-2.59 2.59zm0-5.957c-1.803 0-3.332 1.389-3.332 3.367 0 1.976 1.529 3.369 3.332 3.369 1.803 0 3.33-1.393 3.33-3.369s-1.527-3.367-3.33-3.367zm0 2.59c-.768 0-1.393.59-1.393 1.319 0 .729.625 1.319 1.393 1.319.769 0 1.393-.59 1.393-1.319 0-.729-.624-1.319-1.393-1.319zm.98-6.38c-.641 0-1.081.149-1.442.294-.362.145-.636.293-1.062.293s-.701-.148-1.062-.293c-.362-.145-.802-.294-1.443-.294-.64 0-1.08.149-1.442.294C11.402 8.29 11.128 8.438 10.701 8.438s-.699-.148-1.061-.293c-.362-.144-.803-.294-1.443-.294-.64 0-1.08.15-1.442.293-.361.146-.633.294-1.061.294s-.699-.148-1.061-.294c-.361-.144-.802-.293-1.443-.293v4.17c.594.3 1.75.725 3.029.725h12.86c.411 0 .665-.055.849-.126.438-.173.549-.477.549-.705V7.888c0-.649-.532-1.501-1.172-1.501zm-18.92 7.45H2.454a.41.41 0 0 0-.411.409v.73c0 .227.184.41.411.41h1.576a.41.41 0 0 0 .41-.41v-.73a.41.41 0 0 0-.41-.41zm4.173-5.133H.77a.41.41 0 0 0-.411.409v.73c0 .227.183.41.411.41h6.259a.41.41 0 0 0 .41-.41v-.73a.41.41 0 0 0-.41-.41zm4.59-1.22H1.244a.41.41 0 0 0-.411.409v.73a.41.41 0 0 0 .41.409h12.431a.41.41 0 0 0 .41-.409v-.73a.41.41 0 0 0-.41-.41zm4.174 0H5.418a.41.41 0 0 0-.41.409v.73c0 .226.183.409.41.409h12.743a.41.41 0 0 0 .411-.409v-.73a.41.41 0 0 0-.411-.41zm4.18 4.19h-12.86a.41.41 0 0 0-.412.409v.73a.41.41 0 0 0 .412.409h12.86a.41.41 0 0 0 .41-.409v-.73a.41.41 0 0 0-.41-.41zM7.39 17.37c-1.477 0-2.591-1.119-2.591-2.59 0-1.442 1.114-2.59 2.591-2.59 1.448 0 2.59 1.148 2.59 2.59s-1.142 2.59-2.59 2.59zm0-5.957c-1.802 0-3.332 1.389-3.332 3.367 0 1.976 1.53 3.369 3.332 3.369 1.803 0 3.33-1.393 3.33-3.369 0-1.978-1.527-3.367-3.33-3.367zm0 2.59c-.768 0-1.393.59-1.393 1.319 0 .729.625 1.319 1.393 1.319.768 0 1.392-.59 1.392-1.319 0-.729-.624-1.319-1.392-1.319zm10.198 0c-.768 0-1.393.59-1.393 1.319 0 .729.625 1.319 1.393 1.319.768 0 1.392-.59 1.392-1.319 0-.729-.624-1.319-1.392-1.319z"/>
</svg>

