<svg xmlns="http://www.w3.org/2000/svg" viewBox="0 0 128 128">
  <path fill="#FFA000" d="M6.3 117.7C6.3 118 6.5 118.3 6.8 118.4L67.4 94.1 6.4 57.9C6.3 58.3 6.3 58.7 6.3 59V117.7Z"/>
  <path fill="#F57F17" d="M73.7 30.9L6.8 118.4C6.9 118.5 7 118.5 7.1 118.6L69.6 91.6 73.7 30.9Z"/>
  <path fill="#FFCA28" d="M121.7 117.8C121.9 117.6 122 117.3 122 117V59C122 58.7 121.9 58.4 121.7 58.2L67.4 94.1 94.9 118.4 121.7 117.8Z"/>
  <path fill="#FFA000" d="M6.8 11.7C6.5 11.8 6.3 12.1 6.3 12.4V59C6.3 59.3 6.4 59.6 6.6 59.8L67.4 94.1 94.9 11.7C94.8 11.6 94.7 11.6 94.6 11.5L67.4 34.8 6.8 11.7Z"/>
  <path fill="#FF6F00" d="M67.4 94.1L67.4 94.1 67.4 94.1 67.4 94.1Z"/>
  <path fill="#FFC107" d="M67.4 94.1L121.7 58.2C121.5 58 121.2 57.9 120.9 57.9L73.7 30.9 67.4 94.1Z"/>
</svg> 