<svg viewBox="0 0 24 24" xmlns="http://www.w3.org/2000/svg">
  <path fill="#D24939" d="M2.548 19.833h4.273v-4.273H2.548v4.273zm5.46-2.136H2.184v2.136c0 .394.326.72.72.72h4.838c.395 0 .72-.326.72-.72v-2.136zm0-3.287v3.287h5.248V10.93H7.998v3.48zm0-4.273v1.146H2.229c-.395 0-.72.327-.72.721v2.817h6.472V8.137zm12.298-6.302H9.26v5.212h10.514c.394 0 .718.326.718.72v11.231c0 .394-.324.72-.718.72h-1.434V8.718H10.58v11.115c0 .395-.327.72-.72.72H9.26c-.394 0-.72-.326-.72-.72V1.815c0-.393.326-.719.72-.719h14.087c.393 0 .719.326.719.719v13.479c0 .393-.326.719-.719.719h-1.434v3.817h1.434c.394 0 .719.326.719.72 0 .393-.325.718-.719.718z"/>
  <path fill="#D24939" d="M21.876 14.587l.013.013c-.14-.22-.28-.447-.34-.693v3.247c.06-.246.2-.473.34-.693l-.013.013c.068-.098.146-.186.233-.26l-.035.035c.067-.059.142-.11.225-.15l.018-.033v-1.986c-.083.04-.157.09-.225.15l.035-.035a1.283 1.283 0 0 0-.233-.26l.013.013z"/>
</svg>

