<svg viewBox="0 0 24 24" xmlns="http://www.w3.org/2000/svg">
  <path fill="#326CE5" d="M10.52.42a.84.84 0 0 1 .96 0l9.19 5.05c.51.28.83.81.83 1.38v10.3c0 .57-.32 1.1-.83 1.38L11.48 23.62a.84.84 0 0 1-.96 0L1.33 18.53a1.56 1.56 0 0 1-.83-1.38V6.85c0-.57.32-1.1.83-1.38L10.52.42z"/>
  <path fill="#fff" d="M6.1 7.22c0 .58.33 1.11.84 1.36L12 11.13l5.06-2.55a1.55 1.55 0 0 0 .84-1.36.4.4 0 0 1 .4-.4.42.42 0 0 1 .42.4v4.88l-.7.35a.84.84 0 0 0-.18 1.35l6.58 4.38a.84.84 0 0 1 .32.77.89.89 0 0 1-.61.97l-1.65.56c-.45.14-.6.12-1.16-.38l-6.65-5.55c-.09-.08-.15-.19-.19-.3L12 13.59l-.9.37c-.04.1-.1.22-.19.3l-6.65 5.55c-.57.5-.72.52-1.16.38l-1.66-.56a.9.9 0 0 1-.6-.97c0-.3.12-.57.32-.77l6.59-4.38c.26-.18.4-.53.35-.85l-.72-.35V7.22c0-.19.19-.4.42-.4.22 0 .4.18.4.4z"/>
</svg>

